<?xml version="1.0" encoding="UTF-8" standalone="no"?>
<!-- Created with Inkscape (http://www.inkscape.org/) -->

<svg
   xmlns:dc="http://purl.org/dc/elements/1.1/"
   xmlns:cc="http://creativecommons.org/ns#"
   xmlns:rdf="http://www.w3.org/1999/02/22-rdf-syntax-ns#"
   xmlns:svg="http://www.w3.org/2000/svg"
   xmlns="http://www.w3.org/2000/svg"
   xmlns:sodipodi="http://sodipodi.sourceforge.net/DTD/sodipodi-0.dtd"
   xmlns:inkscape="http://www.inkscape.org/namespaces/inkscape"
   width="96"
   height="96"
   viewBox="0 0 25.4 25.400001"
   version="1.1"
   id="svg8"
   inkscape:version="0.92.4 (5da689c313, 2019-01-14)"
   sodipodi:docname="customer retention.svg">
  <defs
     id="defs2" />
  <sodipodi:namedview
     id="base"
     pagecolor="#ffffff"
     bordercolor="#666666"
     borderopacity="1.0"
     inkscape:pageopacity="0.0"
     inkscape:pageshadow="2"
     inkscape:zoom="2.7916667"
     inkscape:cx="46.103011"
     inkscape:cy="59.589812"
     inkscape:document-units="px"
     inkscape:current-layer="layer2"
     showgrid="false"
     units="px"
     inkscape:pagecheckerboard="false"
     inkscape:window-width="1366"
     inkscape:window-height="705"
     inkscape:window-x="-8"
     inkscape:window-y="-8"
     inkscape:window-maximized="1" />
  <metadata
     id="metadata5">
    <rdf:RDF>
      <cc:Work
         rdf:about="">
        <dc:format>image/svg+xml</dc:format>
        <dc:type
           rdf:resource="http://purl.org/dc/dcmitype/StillImage" />
        <dc:title></dc:title>
      </cc:Work>
    </rdf:RDF>
  </metadata>
  <g
     inkscape:groupmode="layer"
     id="layer2"
     inkscape:label="customer_retention"
     sodipodi:insensitive="true">
    <g
       id="g4560">
      <path
         sodipodi:nodetypes="cccccscasssccsssac"
         inkscape:connector-curvature="0"
         id="path3725"
         d="m 11.409617,12.867852 1.27332,-0.01675 c 0.102487,-0.204169 0.11466,-0.393286 -0.05026,-0.552888 l -2.094276,-0.01675 -0.03351,2.362344 c 0.208216,0.165856 0.536135,0.156588 0.536135,-0.03351 v -1.373845 c -0.139922,0.06458 1.374433,1.177484 2.194802,1.524633 0.775669,0.328233 1.637624,0.506806 2.479623,0.485872 0.765056,-0.01902 1.525934,-0.249013 2.228309,-0.552889 0.585756,-0.253422 1.121586,-0.626039 1.608405,-1.038761 0.379965,-0.322131 1.005252,-1.105777 1.005252,-1.105777 -0.07622,-0.18013 -0.192358,-0.293725 -0.402101,-0.251314 0,0 -0.862465,0.962212 -1.390599,1.323583 -0.595871,0.40772 -1.25831,0.7524 -1.960243,0.921481 -0.651895,0.157028 -1.34459,0.145642 -2.010505,0.06702 -0.690253,-0.0815 -1.386357,-0.352267 -2.010505,-0.686923 -0.508959,-0.272893 -1.373847,-1.055526 -1.373847,-1.055526 z"
         style="fill:#008080;stroke:#008080;stroke-width:0.02645833;stroke-linecap:butt;stroke-linejoin:miter;stroke-miterlimit:4;stroke-dasharray:none;stroke-opacity:0" />
      <path
         style="fill:#008080;stroke:#008080;stroke-width:0.02645833;stroke-linecap:butt;stroke-linejoin:miter;stroke-miterlimit:4;stroke-dasharray:none;stroke-opacity:0"
         d="m 13.739317,2.309395 -0.677898,1.0779976 c 0.115696,0.1969845 0.267836,0.3099749 0.491437,0.2582642 L 14.705007,1.8967083 12.740135,0.58481232 C 12.487756,0.66946941 12.317336,0.9497792 12.476914,1.053084 l 1.153282,0.7465869 C 13.652016,1.647118 11.894844,2.3135672 11.157616,2.8135795 10.460558,3.286348 9.8422433,3.9128789 9.4022493,4.6310755 9.0024623,5.2836418 8.7820483,6.0473497 8.6554478,6.802097 c -0.1055803,0.6294328 -0.08397,1.2817289 -0.00206,1.9146767 0.063931,0.4940189 0.3819678,1.4447753 0.3819678,1.4447753 0.192631,0.03391 0.351102,-0.0019 0.42948,-0.2009743 0,0 -0.339046,-1.2468948 -0.355397,-1.8866191 C 9.0909886,7.3521817 9.1616286,6.6087848 9.4011486,5.92766 9.6235896,5.2950897 10.009578,4.7197908 10.437455,4.2035104 10.880974,3.6683633 11.486554,3.2311574 12.106663,2.8890748 12.612327,2.6101244 13.739318,2.309395 13.739317,2.309395 Z"
         id="path4532"
         inkscape:connector-curvature="0"
         sodipodi:nodetypes="cccccscasssccsssac" />
      <path
         sodipodi:nodetypes="cccccscasssccsssac"
         inkscape:connector-curvature="0"
         id="path4534"
         d="m 21.528632,9.7848791 -0.54359,-1.1515796 c -0.228288,-0.00853 -0.405407,0.058866 -0.48219,0.2751434 L 21.356608,10.820869 23.51989,9.8711318 C 23.5844,9.6128658 23.4399,9.3183546 23.266938,9.3972341 L 22.016945,9.9672944 C 22.133761,10.067806 22.517974,8.2281842 22.493426,7.3377264 22.470213,6.495788 22.275029,5.6374418 21.906618,4.8800326 21.571849,4.1918417 21.046873,3.5949902 20.478949,3.0820244 20.00532,2.6542289 19.443958,2.3213173 18.866444,2.0496394 18.415692,1.8375926 17.443236,1.5938402 17.443236,1.5938402 c -0.132265,0.1440916 -0.187429,0.2968947 -0.06181,0.4701314 0,0 1.233338,0.3854547 1.781274,0.7160308 0.618214,0.3729742 1.206691,0.8326732 1.651789,1.4011685 0.413368,0.5279694 0.690434,1.1629423 0.895213,1.801448 0.212255,0.6618451 0.254743,1.4075454 0.209239,2.1142878 -0.03711,0.5763099 -0.390308,1.6879724 -0.390309,1.6879724 z"
         style="fill:#008080;stroke:#008080;stroke-width:0.02645833;stroke-linecap:butt;stroke-linejoin:miter;stroke-miterlimit:4;stroke-dasharray:none;stroke-opacity:0" />
      <circle
         r="1.6585821"
         cy="5.9708958"
         cx="15.495896"
         id="path4536"
         style="fill:#000000;stroke:#008080;stroke-width:0.02645833;stroke-miterlimit:4;stroke-dasharray:none;stroke-opacity:0" />
      <path
         sodipodi:nodetypes="sasccs"
         inkscape:connector-curvature="0"
         id="path4538"
         d="m 17.012314,8.1981346 c -0.520753,-0.1204568 -0.991365,0.4208182 -1.516418,0.4264925 -0.50569,0.00547 -0.970728,-0.5072838 -1.46903,-0.3791045 -1.344991,0.3459752 -1.6345,2.5115674 -1.46903,2.5115674 h 5.87612 c 0.07982,0 0.08926,-2.209466 -1.421642,-2.5589554 z"
         style="fill:#000000;stroke:#0d7700;stroke-width:0.13229167;stroke-linecap:butt;stroke-linejoin:miter;stroke-miterlimit:4;stroke-dasharray:none;stroke-opacity:0" />
      <path
         sodipodi:nodetypes="cccssasssscccscccc"
         inkscape:connector-curvature="0"
         id="path4540"
         d="m 5.497015,21.845896 v -5.354851 h 3.3645523 c 0,0 0.914779,1.427458 1.6585827,1.516418 1.818884,0.21754 4.584806,-0.086 4.738805,0.09478 0.32159,0.377524 0.472691,0.669924 0.426493,1.042538 -0.04587,0.369967 -0.337906,0.834662 -0.663432,0.900373 -1.592655,0.321494 -5.1861657,-0.002 -5.3074635,-0.04739 -0.6609198,-0.247154 -0.5598773,-0.992677 -0.805597,-1.089926 -0.1970542,-0.07799 -0.382477,0.333628 -0.2843284,0.568657 0.2891388,0.69238 0.4565592,0.76431 0.7108209,1.042537 1.742928,0.199982 3.643889,0.241933 5.639179,0.189553 0.739459,-0.003 0.876073,-0.608754 1.279478,-0.947762 l 2.132462,-1.089925 c 3.27491,-1.673843 5.35814,-0.698133 5.686568,-0.09478 l -9.240672,4.975746 c -0.634667,0.326064 -1.387249,0.416298 -2.274627,0.236941 z"
         style="fill:#008080;stroke:#000000;stroke-width:0.02645833;stroke-linecap:butt;stroke-linejoin:miter;stroke-miterlimit:4;stroke-dasharray:none;stroke-opacity:1" />
      <rect
         y="15.116791"
         x="1.4216418"
         height="8.1981344"
         width="3.5541046"
         id="rect4542"
         style="fill:#008080;stroke:#0d7700;stroke-width:0.02645833;stroke-miterlimit:4;stroke-dasharray:none;stroke-opacity:0" />
    </g>
  </g>
</svg>
