<?xml version="1.0" encoding="UTF-8" standalone="no"?>
<!-- Created with Inkscape (http://www.inkscape.org/) -->

<svg
   xmlns:dc="http://purl.org/dc/elements/1.1/"
   xmlns:cc="http://creativecommons.org/ns#"
   xmlns:rdf="http://www.w3.org/1999/02/22-rdf-syntax-ns#"
   xmlns:svg="http://www.w3.org/2000/svg"
   xmlns="http://www.w3.org/2000/svg"
   xmlns:sodipodi="http://sodipodi.sourceforge.net/DTD/sodipodi-0.dtd"
   xmlns:inkscape="http://www.inkscape.org/namespaces/inkscape"
   width="96"
   height="96"
   viewBox="0 0 25.399999 25.400001"
   version="1.1"
   id="svg4568"
   inkscape:version="0.92.4 (5da689c313, 2019-01-14)"
   sodipodi:docname="predictive_analytics.svg">
  <defs
     id="defs4562" />
  <sodipodi:namedview
     id="base"
     pagecolor="#ffffff"
     bordercolor="#666666"
     borderopacity="1.0"
     inkscape:pageopacity="0.0"
     inkscape:pageshadow="2"
     inkscape:zoom="2.7916667"
     inkscape:cx="27.498563"
     inkscape:cy="56.401683"
     inkscape:document-units="px"
     inkscape:current-layer="layer3"
     showgrid="false"
     inkscape:window-width="1366"
     inkscape:window-height="705"
     inkscape:window-x="-8"
     inkscape:window-y="-8"
     inkscape:window-maximized="1"
     units="px"
     inkscape:snap-global="false" />
  <metadata
     id="metadata4565">
    <rdf:RDF>
      <cc:Work
         rdf:about="">
        <dc:format>image/svg+xml</dc:format>
        <dc:type
           rdf:resource="http://purl.org/dc/dcmitype/StillImage" />
        <dc:title></dc:title>
      </cc:Work>
    </rdf:RDF>
  </metadata>
  <g
     inkscape:groupmode="layer"
     id="layer3"
     inkscape:label="predictive">
    <g
       id="g5149">
      <path
         inkscape:connector-curvature="0"
         id="path4582"
         d="m 16.34888,10.709701 0.663433,-0.9951489 0.142164,3.4119399 -0.805597,0.616045 z"
         style="fill:#008080;stroke:#008080;stroke-width:0.02645833;stroke-linecap:butt;stroke-linejoin:miter;stroke-miterlimit:4;stroke-dasharray:none;stroke-opacity:0" />
      <path
         inkscape:connector-curvature="0"
         id="path4584"
         d="m 14.879851,11.420522 h 0.663432 l 0.09478,2.653732 -0.710822,0.23694 z"
         style="fill:#008080;stroke:#008080;stroke-width:0.02645833;stroke-linecap:butt;stroke-linejoin:miter;stroke-miterlimit:4;stroke-dasharray:none;stroke-opacity:0" />
      <path
         inkscape:connector-curvature="0"
         id="path4586"
         d="m 13.647761,11.136194 0.568657,0.189552 -0.04739,2.795896 -0.568657,-0.189553 z"
         style="fill:#008080;stroke:#008080;stroke-width:0.02645833;stroke-linecap:butt;stroke-linejoin:miter;stroke-miterlimit:4;stroke-dasharray:none;stroke-opacity:0" />
      <path
         inkscape:connector-curvature="0"
         id="path4588"
         d="m 12.7,11.46791 -0.568657,0.236941 v 1.469029 l 0.616045,0.473881 z"
         style="fill:#008080;stroke:#008080;stroke-width:0.02645833;stroke-linecap:butt;stroke-linejoin:miter;stroke-miterlimit:4;stroke-dasharray:none;stroke-opacity:0" />
      <path
         sodipodi:nodetypes="ccsssssccc"
         inkscape:connector-curvature="0"
         id="path4590"
         d="m 10.614925,14.074254 -1.5164176,1.611194 c 0,0 -0.4611952,-0.08137 -0.7108208,0.142164 -1.239057,1.109563 -2.4575762,2.087705 -3.3645524,3.459328 -0.2261903,0.342068 -0.1004242,1.131666 0.1895524,1.421642 0.2899764,0.289976 0.8570433,0.436154 1.1847013,0.189552 1.3247595,-0.997043 2.4364816,-2.461659 3.3408582,-3.625186 0.2152391,-0.276917 0.1184701,-0.687127 0.1184701,-0.687127 l 1.6585818,-1.70597 z"
         style="fill:#008080;stroke:#008080;stroke-width:0.02645833;stroke-linecap:butt;stroke-linejoin:miter;stroke-miterlimit:4;stroke-dasharray:none;stroke-opacity:0" />
      <path
         inkscape:connector-curvature="0"
         id="ellipse4594"
         d="M 14.85604,4.5534033 A 5.5641914,5.9196014 0 0 0 9.2920394,10.472939 5.5641914,5.9196014 0 0 0 14.85604,16.392474 5.5641914,5.9196014 0 0 0 20.420558,10.472939 5.5641914,5.9196014 0 0 0 14.85604,4.5534033 Z m 0.02377,0.6609416 a 4.7847538,5.0453882 0 0 1 4.78472,5.0451701 4.7847538,5.0453882 0 0 1 -4.78472,5.04517 4.7847538,5.0453882 0 0 1 -4.784721,-5.04517 4.7847538,5.0453882 0 0 1 4.784721,-5.0451701 z"
         style="fill:#008080;stroke:#0d7700;stroke-width:0.02645833;stroke-miterlimit:4;stroke-dasharray:none;stroke-opacity:0" />
      <path
         sodipodi:nodetypes="ccsacccccaasac"
         inkscape:connector-curvature="0"
         id="path5140"
         d="m 12.083955,11.325746 v -0.367852 c 0,0 0.715197,-0.458995 1.137313,-0.536586 0.751519,-0.13814 1.450477,0.5025 2.09033,0.217311 0.745595,-0.332319 1.440081,-1.9807306 1.440081,-1.9807306 l -0.355411,-0.1404802 0.99515,-0.7694606 0.142164,1.2794777 -0.426493,-0.248192 c 0,0 -0.4375,0.8606916 -0.718705,1.2507317 -0.22689,0.314704 -0.421181,0.708175 -0.774223,0.869042 -0.397497,0.181124 -0.888424,0.128867 -1.310358,0.01581 -0.32216,-0.08632 -0.597918,-0.234536 -0.905178,-0.201051 -0.480532,0.05237 -1.31467,0.611979 -1.31467,0.61198 z"
         style="fill:#3affff;fill-opacity:1;stroke:#000000;stroke-width:0;stroke-linecap:butt;stroke-linejoin:miter;stroke-miterlimit:4;stroke-dasharray:none;stroke-opacity:1" />
    </g>
  </g>
</svg>
